<svg width="47" height="47" viewBox="0 0 47 47" fill="none" xmlns="http://www.w3.org/2000/svg">
<g opacity="0.8" filter="url(#filter0_b_1_2922)">
<rect x="2.41992" y="2" width="42.71" height="42.71" rx="4" fill="url(#paint0_linear_1_2922)" fill-opacity="0.1"/>
<rect x="1.66992" y="1.25" width="44.21" height="44.21" rx="4.75" stroke="url(#paint1_linear_1_2922)" stroke-width="1.5"/>
</g>
<g clip-path="url(#clip0_1_2922)">
<path d="M34.8297 14.9236C32.8679 14.0234 30.7641 13.3602 28.5646 12.9804C28.5245 12.973 28.4845 12.9913 28.4638 13.028C28.1933 13.5092 27.8936 14.137 27.6837 14.6304C25.3179 14.2762 22.9643 14.2762 20.647 14.6304C20.4371 14.126 20.1265 13.5092 19.8547 13.028C19.8341 12.9926 19.7941 12.9742 19.754 12.9804C17.5556 13.359 15.4519 14.0222 13.4889 14.9236C13.4719 14.9309 13.4573 14.9431 13.4476 14.959C9.45727 20.9205 8.36414 26.7355 8.90039 32.4783C8.90282 32.5064 8.91859 32.5333 8.94043 32.5504C11.5732 34.4838 14.1234 35.6576 16.6263 36.4356C16.6663 36.4478 16.7088 36.4331 16.7343 36.4001C17.3263 35.5916 17.8541 34.7391 18.3066 33.8426C18.3333 33.7901 18.3078 33.7278 18.2532 33.707C17.4161 33.3895 16.619 33.0023 15.8522 32.5626C15.7916 32.5272 15.7867 32.4405 15.8425 32.3989C16.0039 32.278 16.1653 32.1522 16.3193 32.0252C16.3472 32.002 16.3861 31.9971 16.4188 32.0117C21.4562 34.3116 26.9097 34.3116 31.8876 32.0117C31.9203 31.9959 31.9592 32.0008 31.9883 32.024C32.1424 32.151 32.3038 32.278 32.4663 32.3989C32.5221 32.4405 32.5185 32.5272 32.4578 32.5626C31.6911 33.0108 30.8939 33.3895 30.0556 33.7058C30.001 33.7266 29.9767 33.7901 30.0035 33.8426C30.4657 34.7378 30.9934 35.5904 31.5746 36.3989C31.5988 36.4331 31.6425 36.4478 31.6826 36.4356C34.1976 35.6576 36.7478 34.4838 39.3805 32.5504C39.4036 32.5333 39.4182 32.5076 39.4206 32.4796C40.0624 25.8402 38.3456 20.0729 34.8697 14.9602C34.8612 14.9431 34.8467 14.9309 34.8297 14.9236ZM19.0588 28.9815C17.5423 28.9815 16.2926 27.5892 16.2926 25.8793C16.2926 24.1693 17.518 22.777 19.0588 22.777C20.6118 22.777 21.8493 24.1815 21.825 25.8793C21.825 27.5892 20.5996 28.9815 19.0588 28.9815ZM29.2864 28.9815C27.7699 28.9815 26.5202 27.5892 26.5202 25.8793C26.5202 24.1693 27.7456 22.777 29.2864 22.777C30.8394 22.777 32.0768 24.1815 32.0526 25.8793C32.0526 27.5892 30.8394 28.9815 29.2864 28.9815Z" fill="white"/>
</g>
<defs>
<filter id="filter0_b_1_2922" x="-49.0801" y="-49.5" width="145.71" height="145.71" filterUnits="userSpaceOnUse" color-interpolation-filters="sRGB">
<feFlood flood-opacity="0" result="BackgroundImageFix"/>
<feGaussianBlur in="BackgroundImageFix" stdDeviation="25"/>
<feComposite in2="SourceAlpha" operator="in" result="effect1_backgroundBlur_1_2922"/>
<feBlend mode="normal" in="SourceGraphic" in2="effect1_backgroundBlur_1_2922" result="shape"/>
</filter>
<linearGradient id="paint0_linear_1_2922" x1="1.76999" y1="34.907" x2="46.9869" y2="34.907" gradientUnits="userSpaceOnUse">
<stop stop-color="white"/>
<stop offset="1" stop-color="white" stop-opacity="0.24"/>
</linearGradient>
<linearGradient id="paint1_linear_1_2922" x1="2.41992" y1="2" x2="37.7246" y2="53.8863" gradientUnits="userSpaceOnUse">
<stop stop-color="white" stop-opacity="0.28"/>
<stop offset="1" stop-color="white" stop-opacity="0"/>
</linearGradient>
<clipPath id="clip0_1_2922">
<rect width="31.0618" height="31.0618" fill="white" transform="translate(8.63232 8.21216)"/>
</clipPath>
</defs>
</svg>
