<svg width="47" height="47" viewBox="0 0 47 47" fill="none" xmlns="http://www.w3.org/2000/svg">
<g opacity="0.8" filter="url(#filter0_b_1_2928)">
<rect x="1.83984" y="2" width="42.71" height="42.71" rx="4" fill="url(#paint0_linear_1_2928)" fill-opacity="0.1"/>
<rect x="1.08984" y="1.25" width="44.21" height="44.21" rx="4.75" stroke="url(#paint1_linear_1_2928)" stroke-width="1.5"/>
</g>
<g clip-path="url(#clip0_1_2928)">
<path d="M30.3025 19.4246C32.3 20.8575 34.747 21.7006 37.3898 21.7006V16.5968C36.8897 16.5969 36.3908 16.5446 35.9015 16.4405V20.458C33.2588 20.458 30.8121 19.6148 28.8141 18.182V28.5974C28.8141 33.8077 24.6054 38.0312 19.4139 38.0312C17.4768 38.0312 15.6764 37.4435 14.1808 36.4355C15.8878 38.1871 18.2683 39.2737 20.9019 39.2737C26.0937 39.2737 30.3027 35.0502 30.3027 29.8397V19.4246H30.3025ZM32.1386 14.2754C31.1178 13.1562 30.4475 11.7098 30.3025 10.1108V9.45435H28.892C29.2471 11.4867 30.458 13.2231 32.1386 14.2754ZM17.4644 32.4373C16.8941 31.6868 16.5858 30.7688 16.5872 29.8248C16.5872 27.4418 18.5123 25.5096 20.8873 25.5096C21.3299 25.5095 21.7699 25.5775 22.1917 25.7119V20.494C21.6988 20.4262 21.2012 20.3974 20.7039 20.408V24.4693C20.2818 24.335 19.8416 24.2668 19.3989 24.2672C17.0239 24.2672 15.0989 26.1991 15.0989 28.5825C15.0989 30.2676 16.0612 31.7266 17.4644 32.4373Z" fill="white"/>
<path d="M28.8141 18.1819C30.8121 19.6147 33.2588 20.4579 35.9014 20.4579V16.4404C34.4263 16.1251 33.1204 15.3515 32.1386 14.2754C30.4579 13.223 29.2471 11.4866 28.892 9.45435H25.1871V29.8395C25.1788 32.216 23.257 34.1403 20.8871 34.1403C19.4905 34.1403 18.2498 33.4722 17.4641 32.4373C16.0609 31.7266 15.0987 30.2675 15.0987 28.5826C15.0987 26.1995 17.0237 24.2673 19.3987 24.2673C19.8537 24.2673 20.2923 24.3384 20.7037 24.4694V20.4081C15.6034 20.5138 11.5016 24.696 11.5016 29.8396C11.5016 32.4072 12.523 34.7349 14.1809 36.4356C15.6765 37.4435 17.4769 38.0313 19.414 38.0313C24.6055 38.0313 28.8142 33.8076 28.8142 28.5974V18.1819H28.8141Z" fill="white"/>
<path d="M35.9014 16.4405V15.3542C34.5712 15.3562 33.2672 14.9823 32.1386 14.2754C33.1376 15.373 34.4532 16.1299 35.9014 16.4405ZM28.892 9.45437C28.8582 9.26014 28.8322 9.06463 28.8141 8.86837V8.21191H23.6986V28.5973C23.6905 30.9735 21.7688 32.8977 19.3987 32.8977C18.7028 32.8977 18.0459 32.732 17.4641 32.4374C18.2498 33.4722 19.4905 34.1402 20.8871 34.1402C23.2568 34.1402 25.1789 32.2161 25.1871 29.8396V9.45437H28.892ZM20.7039 20.4081V19.2517C20.2765 19.193 19.8455 19.1636 19.4141 19.1638C14.2221 19.1637 10.0133 23.3874 10.0133 28.5973C10.0133 31.8636 11.6674 34.7422 14.181 36.4355C12.5232 34.7348 11.5017 32.407 11.5017 29.8395C11.5017 24.6961 15.6034 20.5138 20.7039 20.4081Z" fill="white"/>
</g>
<defs>
<filter id="filter0_b_1_2928" x="-49.6602" y="-49.5" width="145.71" height="145.71" filterUnits="userSpaceOnUse" color-interpolation-filters="sRGB">
<feFlood flood-opacity="0" result="BackgroundImageFix"/>
<feGaussianBlur in="BackgroundImageFix" stdDeviation="25"/>
<feComposite in2="SourceAlpha" operator="in" result="effect1_backgroundBlur_1_2928"/>
<feBlend mode="normal" in="SourceGraphic" in2="effect1_backgroundBlur_1_2928" result="shape"/>
</filter>
<linearGradient id="paint0_linear_1_2928" x1="1.18991" y1="34.907" x2="46.4068" y2="34.907" gradientUnits="userSpaceOnUse">
<stop stop-color="white"/>
<stop offset="1" stop-color="white" stop-opacity="0.24"/>
</linearGradient>
<linearGradient id="paint1_linear_1_2928" x1="1.83984" y1="2" x2="37.1445" y2="53.8863" gradientUnits="userSpaceOnUse">
<stop stop-color="white" stop-opacity="0.28"/>
<stop offset="1" stop-color="white" stop-opacity="0"/>
</linearGradient>
<clipPath id="clip0_1_2928">
<rect width="31.0618" height="31.0618" fill="white" transform="translate(8.05212 8.21191)"/>
</clipPath>
</defs>
</svg>
