<svg width="65" height="65" viewBox="0 0 65 65" fill="none" xmlns="http://www.w3.org/2000/svg">
<g opacity="0.3" filter="url(#filter0_b_1_2897)">
<circle cx="32.5" cy="32.5" r="31.5" fill="url(#paint0_linear_1_2897)" fill-opacity="0.2"/>
<circle cx="32.5" cy="32.5" r="32" stroke="url(#paint1_linear_1_2897)"/>
</g>
<g filter="url(#filter1_b_1_2897)">
<circle cx="32.5" cy="32.5" r="25.5" fill="url(#paint2_linear_1_2897)" fill-opacity="0.2"/>
<circle cx="32.5" cy="32.5" r="26" stroke="url(#paint3_linear_1_2897)"/>
</g>
<path d="M52.3333 32.5001C52.3333 37.7602 50.2437 42.8049 46.5242 46.5244C42.8048 50.2438 37.7601 52.3334 32.5 52.3334C27.2398 52.3334 22.1951 50.2438 18.4757 46.5244C14.7562 42.8049 12.6666 37.7602 12.6666 32.5001C12.6666 27.24 14.7562 22.1953 18.4757 18.4758C22.1951 14.7563 27.2398 12.6667 32.5 12.6667C37.7601 12.6667 42.8048 14.7563 46.5242 18.4758C50.2437 22.1953 52.3333 27.24 52.3333 32.5001ZM29.5002 25.2931C29.3148 25.1612 29.0967 25.0828 28.8698 25.0665C28.6428 25.0503 28.4158 25.0968 28.2135 25.201C28.0112 25.3052 27.8415 25.4631 27.723 25.6573C27.6045 25.8515 27.5418 26.0746 27.5416 26.3022V38.698C27.5418 38.9255 27.6045 39.1486 27.723 39.3429C27.8415 39.5371 28.0112 39.695 28.2135 39.7992C28.4158 39.9034 28.6428 39.9499 28.8698 39.9336C29.0967 39.9174 29.3148 39.839 29.5002 39.707L38.1773 33.5091C38.3379 33.3944 38.4689 33.243 38.5593 33.0675C38.6497 32.892 38.6968 32.6975 38.6968 32.5001C38.6968 32.3027 38.6497 32.1081 38.5593 31.9326C38.4689 31.7571 38.3379 31.6057 38.1773 31.4911L29.5002 25.2931Z" fill="url(#paint4_linear_1_2897)"/>
<defs>
<filter id="filter0_b_1_2897" x="-10" y="-10" width="85" height="85" filterUnits="userSpaceOnUse" color-interpolation-filters="sRGB">
<feFlood flood-opacity="0" result="BackgroundImageFix"/>
<feGaussianBlur in="BackgroundImageFix" stdDeviation="5"/>
<feComposite in2="SourceAlpha" operator="in" result="effect1_backgroundBlur_1_2897"/>
<feBlend mode="normal" in="SourceGraphic" in2="effect1_backgroundBlur_1_2897" result="shape"/>
</filter>
<filter id="filter1_b_1_2897" x="-4" y="-4" width="73" height="73" filterUnits="userSpaceOnUse" color-interpolation-filters="sRGB">
<feFlood flood-opacity="0" result="BackgroundImageFix"/>
<feGaussianBlur in="BackgroundImageFix" stdDeviation="5"/>
<feComposite in2="SourceAlpha" operator="in" result="effect1_backgroundBlur_1_2897"/>
<feBlend mode="normal" in="SourceGraphic" in2="effect1_backgroundBlur_1_2897" result="shape"/>
</filter>
<linearGradient id="paint0_linear_1_2897" x1="-1.88192" y1="-4.0266" x2="67.4851" y2="75.3266" gradientUnits="userSpaceOnUse">
<stop stop-color="white" stop-opacity="0.67"/>
<stop offset="1" stop-color="white" stop-opacity="0.21"/>
</linearGradient>
<linearGradient id="paint1_linear_1_2897" x1="-10.0571" y1="-19.475" x2="81.6123" y2="95.3468" gradientUnits="userSpaceOnUse">
<stop stop-color="#E025CE"/>
<stop offset="1" stop-color="#4AED52"/>
</linearGradient>
<linearGradient id="paint2_linear_1_2897" x1="4.66702" y1="2.93085" x2="60.8213" y2="67.1691" gradientUnits="userSpaceOnUse">
<stop stop-color="white" stop-opacity="0.67"/>
<stop offset="1" stop-color="white" stop-opacity="0.21"/>
</linearGradient>
<linearGradient id="paint3_linear_1_2897" x1="-1.95102" y1="-9.575" x2="72.2576" y2="83.3759" gradientUnits="userSpaceOnUse">
<stop stop-color="#E025CE"/>
<stop offset="1" stop-color="#4AED52"/>
</linearGradient>
<linearGradient id="paint4_linear_1_2897" x1="11.518" y1="36.4667" x2="45.9533" y2="60.266" gradientUnits="userSpaceOnUse">
<stop stop-color="#E025CE"/>
<stop offset="1" stop-color="#4AED52"/>
</linearGradient>
</defs>
</svg>
