<svg width="70" height="70" viewBox="0 0 70 70" fill="none" xmlns="http://www.w3.org/2000/svg">
<path d="M34.9124 5.75854V26.9558C34.9124 27.0458 34.8225 27.1358 34.7325 27.1358C34.1026 27.4109 33.5627 27.6834 32.9328 27.9559C32.123 28.3184 31.2232 28.6835 30.4133 29.1386L27.4439 30.5012L25.0144 31.5938L22.045 32.959C21.2351 33.324 20.4253 33.6865 19.5254 34.1416C18.8956 34.4141 18.1757 34.7792 17.5458 35.0517C17.4558 35.0517 17.4558 35.1417 17.3659 35.0517H17.2759C17.5458 34.5966 17.8158 34.2316 18.0857 33.7791C19.5254 31.3213 21.0551 28.866 22.4949 26.4082C24.0246 23.773 25.6442 21.1327 27.174 18.4949C28.6137 16.0397 30.0534 13.5844 31.4931 11.2192C32.5729 9.39641 33.6527 7.67132 34.6425 5.84853C34.8225 5.84853 34.8225 5.75854 34.9124 5.75854C34.8225 5.75854 34.9124 5.75854 34.9124 5.75854V5.75854Z" fill="#8C8C8C"/>
<path d="M52.369 35.0518C51.0192 35.9619 49.5795 36.7794 48.2298 37.597C43.8206 40.2373 39.5015 42.7851 35.0923 45.4229C35.0024 45.4229 35.0024 45.5129 34.9124 45.5129C34.8224 45.5129 34.8224 45.4229 34.8224 45.4229V27.1359C34.8224 27.0459 34.9124 27.0459 35.0024 27.0459C35.3623 27.2259 35.7222 27.411 36.1721 27.5909C37.2519 28.1385 38.4217 28.5936 39.5015 29.1386C40.4913 29.5937 41.3911 30.0487 42.3809 30.4112C43.3707 30.8663 44.2705 31.3214 45.2604 31.7764C46.0702 32.1415 46.97 32.504 47.7799 32.959C48.5897 33.3241 49.4895 33.6866 50.2994 34.1417C50.9293 34.4142 51.5591 34.7792 52.279 35.0518C52.279 34.9618 52.279 35.0518 52.369 35.0518V35.0518Z" fill="#141414"/>
<path d="M34.9122 63.3449C34.9122 63.3449 34.8222 63.3449 34.9122 63.3449C34.8222 63.3449 34.8222 63.3449 34.7322 63.2524C32.9326 60.7072 31.2229 58.2493 29.4233 55.7016L24.0243 48.0608C22.3146 45.6055 20.515 43.1503 18.8053 40.5999L17.4556 38.6897C17.4556 38.5997 17.3656 38.5997 17.3656 38.5098C17.4556 38.5098 17.4556 38.5997 17.5456 38.5997C19.9751 40.0549 22.4946 41.51 24.9241 42.9652C27.7136 44.6954 30.593 46.3331 33.3825 48.0608C33.8324 48.3333 34.3723 48.6058 34.8222 48.8783C34.9122 48.8783 34.9122 48.9709 34.9122 49.0609V63.3449Z" fill="#8C8C8C"/>
<path d="M17.2759 34.0997C17.2759 34.0097 17.2759 34.0097 17.2759 34.0997C18.1757 33.6446 19.0755 33.2821 19.9754 32.827L23.4847 31.1894C24.3845 30.7343 25.2843 30.3718 26.1841 29.9168C27.4439 29.2792 28.7936 28.7341 30.0534 28.0965C30.9532 27.7315 31.853 27.2764 32.7529 26.9139C33.3827 26.6414 34.0126 26.3689 34.6425 26.0038C34.7325 26.0038 34.7325 25.9138 34.8225 25.9138V44.4708C34.7325 44.5633 34.7325 44.4708 34.6425 44.4708C34.3725 44.2908 34.1026 44.1983 33.9226 44.0157L17.4558 34.1922C17.3659 34.0997 17.2759 34.0997 17.2759 34.0997ZM52.0991 37.4676C52.0991 37.5575 52.0991 37.5575 52.0091 37.6475C46.7901 45.1084 41.5711 52.4766 36.3522 59.9375C35.8123 60.755 35.2724 61.4826 34.7325 62.3027V47.8361C35.9023 47.1085 37.072 46.381 38.2418 45.746L52.0091 37.5575C52.0091 37.4676 52.0991 37.4676 52.0991 37.4676V37.4676Z" fill="#3C3C3B"/>
<path d="M34.9125 27.0459V5.85376L52.1891 34.7818C52.2791 34.8718 52.3691 34.9618 52.3691 35.0544C52.0091 34.8744 51.6492 34.6893 51.1993 34.5093C50.7494 34.3268 50.2995 34.0543 49.8496 33.8717C49.5796 33.7817 49.3097 33.5992 48.9497 33.5067C48.4998 33.3267 47.9599 33.0516 47.51 32.8716C47.2401 32.7791 46.9701 32.5991 46.7002 32.5066L44.8105 31.689C44.4506 31.5065 44.1807 31.4165 43.8207 31.234C43.3708 31.0514 42.9209 30.7789 42.471 30.5964C42.2011 30.5064 41.9311 30.3238 41.6612 30.2339L39.7715 29.4137C39.4116 29.2338 39.1417 29.1412 38.7817 28.9587C38.3318 28.7787 37.8819 28.5036 37.432 28.3211C37.162 28.1411 36.8021 28.0486 36.5322 27.8686L34.9125 27.0485V27.0459Z" fill="#343434"/>
</svg>
