<svg width="70" height="70" viewBox="0 0 70 70" fill="none" xmlns="http://www.w3.org/2000/svg">
<path d="M60.4761 7.51758L38.0062 24.2761L42.1615 14.3888L60.4761 7.51758Z" fill="#E2761B"/>
<path d="M8.60325 7.51758L30.8925 24.4349L26.9405 14.3888L8.60325 7.51758ZM52.3914 46.3638L46.4069 55.5708L59.2114 59.1085L62.8924 46.5679L52.3914 46.3638ZM6.23206 46.5679L9.89047 59.1085L22.6949 55.5708L16.7105 46.3638L6.23206 46.5679Z" fill="#E4761B"/>
<path d="M21.9723 30.8072L18.4042 36.2271L31.1183 36.794L30.6666 23.0743L21.9723 30.8072ZM47.1069 30.8072L38.2996 22.9155L38.0061 36.794L50.6976 36.2271L47.1069 30.8072ZM22.6949 55.5709L30.3279 51.8291L23.7337 46.6587L22.6949 55.5709ZM38.7513 51.8291L46.4069 55.5709L45.3455 46.6587L38.7513 51.8291Z" fill="#E4761B"/>
<path d="M46.407 55.5709L38.7515 51.8291L39.3612 56.8408L39.2934 58.9498L46.407 55.5709ZM22.6951 55.5709L29.8087 58.9498L29.7635 56.8408L30.3281 51.8291L22.6951 55.5709Z" fill="#D7C1B3"/>
<path d="M29.9216 43.3477L23.5532 41.4655L28.0472 39.4019L29.9216 43.3477ZM39.158 43.3477L41.0323 39.4019L45.5489 41.4655L39.158 43.3477Z" fill="#233447"/>
<path d="M22.695 55.5708L23.779 46.3638L16.7106 46.5679L22.695 55.5708ZM45.323 46.3638L46.407 55.5708L52.3914 46.5679L45.323 46.3638ZM50.6977 36.2271L38.0062 36.794L39.1805 43.3477L41.0549 39.4019L45.5714 41.4655L50.6977 36.2271ZM23.5532 41.4655L28.0697 39.4019L29.9215 43.3477L31.1184 36.794L18.4043 36.2271L23.5532 41.4655Z" fill="#CD6116"/>
<path d="M18.4042 36.2271L23.7337 46.6586L23.5531 41.4655L18.4042 36.2271ZM45.5713 41.4655L45.3455 46.6586L50.6976 36.2271L45.5713 41.4655ZM31.1183 36.794L29.9214 43.3477L31.4119 51.0807L31.7506 40.8986L31.1183 36.794ZM38.0061 36.794L37.3963 40.8759L37.6673 51.0807L39.1804 43.3477L38.0061 36.794Z" fill="#E4751F"/>
<path d="M39.1805 43.3478L37.6675 51.0808L38.7515 51.8291L45.3457 46.6587L45.5715 41.4656L39.1805 43.3478ZM23.5532 41.4656L23.7339 46.6587L30.3281 51.8291L31.412 51.0808L29.9216 43.3478L23.5532 41.4656Z" fill="#F6851B"/>
<path d="M39.2934 58.9497L39.3612 56.8407L38.7966 56.3418H30.2829L29.7635 56.8407L29.8087 58.9497L22.6951 55.5708L25.1792 57.6118L30.2151 61.1267H38.8644L43.9229 57.6118L46.407 55.5708L39.2934 58.9497Z" fill="#C0AD9E"/>
<path d="M38.7514 51.8292L37.6674 51.0808H31.412L30.328 51.8292L29.7634 56.8408L30.2828 56.3419H38.7966L39.3611 56.8408L38.7514 51.8292Z" fill="#161616"/>
<path d="M61.4246 25.3646L63.3441 16.1123L60.4761 7.51758L38.7514 23.7092L47.1071 30.8072L58.9179 34.2768L61.5375 31.2154L60.4084 30.399L62.215 28.7435L60.8149 27.655L62.6215 26.2717L61.4246 25.3646ZM5.75793 16.1123L7.67747 25.3646L6.458 26.2717L8.26463 27.655L6.88708 28.7435L8.6937 30.399L7.56456 31.2154L10.1616 34.2768L21.9724 30.8072L30.328 23.7092L8.60337 7.51758L5.75793 16.1123Z" fill="#763D16"/>
<path d="M58.9178 34.2769L47.107 30.8073L50.6976 36.2272L45.3455 46.6587L52.3914 46.568H62.8924L58.9178 34.2769ZM21.9723 30.8073L10.1615 34.2769L6.23206 46.568H16.7105L23.7337 46.6587L18.4042 36.2272L21.9723 30.8073ZM38.0061 36.7941L38.7513 23.7093L42.1839 14.3889H26.9405L30.3279 23.7093L31.1183 36.7941L31.3893 40.9214L31.4119 51.0808H37.6674L37.7125 40.9214L38.0061 36.7941Z" fill="#F6851B"/>
</svg>
