<svg width="70" height="70" viewBox="0 0 70 70" fill="none" xmlns="http://www.w3.org/2000/svg">
<path fill-rule="evenodd" clip-rule="evenodd" d="M31.2013 51.6597C32.7294 57.4886 38.2135 61.9365 40.982 61.7543C41.0786 61.7477 51.4871 59.7477 57.1843 49.9341C61.619 42.2984 60.1086 34.9261 54.0777 34.7658C51.9087 34.9283 28.288 40.553 31.2013 51.6597ZM36.4396 7.773C32.512 7.773 28.7842 8.61605 25.412 10.1199C24.822 10.3672 24.2472 10.6495 23.6908 10.9652C23.3088 11.1693 22.9267 11.3713 22.5579 11.5909L22.6457 11.6194C21.5283 12.3944 20.5667 13.2967 19.7785 14.3417C11.9781 24.6691 38.1213 32.1752 52.0975 32.2016C58.5301 36.8274 60.3347 19.1739 54.0514 14.2737C49.1492 10.0668 42.8994 7.75996 36.4396 7.773Z" fill="#0E3CA5"/>
<path fill-rule="evenodd" clip-rule="evenodd" d="M26.6149 13.8282C23.0802 19.0204 11.3039 22.6802 9.36755 22.1094L9.35876 22.0874L9.60026 21.6198C11.6235 17.8235 14.4967 14.546 17.9956 12.0433C18.7201 11.523 19.4709 11.0378 20.2459 10.5856C21.8903 9.65252 23.5808 9.59544 24.1362 9.57349C29.3789 9.67009 26.6412 13.7865 26.6127 13.8282" fill="#5493F7"/>
<mask id="mask0_1_2969" style="mask-type:alpha" maskUnits="userSpaceOnUse" x="5" y="25" width="19" height="37">
<path d="M5.75867 25.7681H23.7546V61.7578H5.75867V25.7681Z" fill="white"/>
</mask>
<g mask="url(#mask0_1_2969)">
<path fill-rule="evenodd" clip-rule="evenodd" d="M23.6493 52.7368C23.9127 54.4426 23.6427 61.1848 23.287 61.7534C22.9841 61.771 22.3474 61.8105 20.5098 60.7918C16.9443 58.7829 13.8397 56.0486 11.3966 52.7653C9.60934 50.3603 8.20929 47.6906 7.24721 44.853C6.25683 41.9176 5.754 38.8398 5.7587 35.7419C5.75322 32.3364 6.36157 28.9578 7.55457 25.7681H7.55896C9.66657 28.5321 12.1035 31.0327 14.1738 33.8253C16.1475 36.4818 18.861 40.8134 19.4121 41.7398C22.8414 47.4853 23.388 51.0309 23.6493 52.7368Z" fill="#5493F7"/>
</g>
<path fill-rule="evenodd" clip-rule="evenodd" d="M63.3449 36.0612C63.3449 39.7473 62.6424 43.271 61.3712 46.5027C58.0342 50.1032 35.5266 41.2424 35.3049 41.1458C32.2269 39.7934 22.8568 35.6748 22.0115 29.2071C20.7953 19.9028 39.6145 13.4175 47.8847 13.1716C48.8748 13.1826 51.8936 13.2177 53.6521 14.6535C56.7014 17.3233 59.1441 20.6148 60.8159 24.3069C62.4878 27.999 63.3501 32.0061 63.3449 36.059V36.0612ZM43.6629 59.0759C45.0087 54.3118 56.7762 49.4292 59.3734 49.1657C59.6939 49.1328 59.83 49.3589 59.6895 49.618C56.9804 54.5445 52.9693 58.6017 48.1152 61.2318C45.6607 62.4218 42.9603 61.5546 43.6629 59.0759Z" fill="#5493F7"/>
</svg>
