<svg width="49" height="30" viewBox="0 0 49 30" fill="none" xmlns="http://www.w3.org/2000/svg">
<path d="M8.74958 19.6886L8.65375 21.6436L1.12125 22.2761V19.2286L3.59375 19.3915L3.37333 11.2073L1.12125 11.3223L1.45667 8.00651L7.90625 8.30359L13.8192 19.9569V10.9869L11.7779 11.0444V8.00651L18.9942 8.59109L18.86 10.7953L16.6846 10.8719L15.3908 22.2761L13.5029 22.6498L6.16208 11.2457L5.41458 19.4873L8.74958 19.6886ZM29.4113 16.8615L24.9358 16.5069L24.725 19.2957L28.2517 19.1328V22.1611L20.01 21.9023L19.9525 19.4682L22.8946 19.3532L22.425 11.7728L19.9908 11.9357V8.32276L34.2413 8.61984V14.1494L32.3533 14.2453L32.4492 11.1307L25.3096 11.6003L25.0508 14.9928L29.4113 14.7148V16.8615ZM45.7604 19.2957L45.7029 21.7298L37.4612 21.979V18.9603L40.6621 19.0944L40.0487 11.3607L36.6371 11.3798L36.5796 14.1878H34.9312L35.42 8.47609L48.0221 7.96818L48.7504 13.9386L46.9392 14.1878L46.8817 11.3223L43.0771 11.3415L42.4446 19.1519L45.7604 19.2957Z" fill="url(#paint0_linear_1_3964)"/>
<defs>
<linearGradient id="paint0_linear_1_3964" x1="-1.41892" y1="18.3023" x2="25.1735" y2="49.3563" gradientUnits="userSpaceOnUse">
<stop stop-color="#E025CE"/>
<stop offset="1" stop-color="#4AED52"/>
</linearGradient>
</defs>
</svg>
