<svg width="159" height="30" viewBox="0 0 159 30" fill="none" xmlns="http://www.w3.org/2000/svg">
<path d="M8.35667 21.6436L0.824167 22.2761L1.08292 19.2286L3.72792 19.4107L3.53625 11.6769L0.824167 11.974L1.15958 8.00651H7.245L12.075 17.4461L15.2854 8.00651H21.3517V11.0444H18.5629L18.8025 19.3532L21.7446 19.4298L21.9075 21.6436L14.1163 22.2761V19.2286L16.9146 19.3148L15.8413 12.0698L12.2667 20.7619H10.81L6.02792 11.9548L5.47208 19.5065L8.18417 19.6886L8.35667 21.6436ZM37.7775 14.9544C37.7775 15.9639 37.6338 16.9126 37.3463 17.8007C37.0588 18.6823 36.6115 19.4554 36.0046 20.1198C35.3976 20.7779 34.6182 21.2986 33.6663 21.6819C32.7143 22.0653 31.5739 22.2569 30.245 22.2569C28.8969 22.2569 27.7438 22.0653 26.7854 21.6819C25.8335 21.2986 25.054 20.7779 24.4471 20.1198C23.8465 19.4554 23.4057 18.6823 23.1246 17.8007C22.8435 16.9126 22.7029 15.9639 22.7029 14.9544C22.7029 13.945 22.8563 12.9962 23.1629 12.1082C23.4696 11.2137 23.9328 10.4375 24.5525 9.77943C25.1786 9.11498 25.9644 8.59109 26.91 8.20776C27.8556 7.82443 28.9672 7.63276 30.245 7.63276C31.2417 7.63276 32.1201 7.7222 32.8804 7.90109C33.6471 8.07359 34.3083 8.31957 34.8642 8.63901C35.42 8.95207 35.8832 9.3322 36.2538 9.77943C36.6307 10.2203 36.931 10.7122 37.1546 11.2553C37.3846 11.7983 37.5443 12.3829 37.6338 13.009C37.7296 13.6351 37.7775 14.2836 37.7775 14.9544ZM36.0333 14.9544C36.0333 14.4178 35.9471 13.913 35.7746 13.4403C35.6085 12.9611 35.305 12.5458 34.8642 12.1944C34.4297 11.8366 33.8388 11.5555 33.0913 11.3511C32.3438 11.1466 31.395 11.0444 30.245 11.0444C29.2611 11.0444 28.405 11.1466 27.6767 11.3511C26.9547 11.5555 26.3542 11.8366 25.875 12.1944C25.3958 12.5458 25.0381 12.9611 24.8017 13.4403C24.5717 13.913 24.4567 14.4178 24.4567 14.9544C24.4567 15.4911 24.5621 15.9958 24.7729 16.4686C24.9901 16.935 25.3288 17.3471 25.7888 17.7048C26.2551 18.0562 26.8525 18.3341 27.5808 18.5386C28.3156 18.743 29.2036 18.8453 30.245 18.8453C31.2672 18.8453 32.1425 18.743 32.8708 18.5386C33.5992 18.3341 34.1965 18.0562 34.6629 17.7048C35.1357 17.3471 35.4807 16.935 35.6979 16.4686C35.9215 15.9958 36.0333 15.4911 36.0333 14.9544ZM46.9679 19.6886L46.8721 21.6436L39.3396 22.2761V19.2286L41.8121 19.3915L41.5917 11.2073L39.3396 11.3223L39.675 8.00651L46.1246 8.30359L52.0375 19.9569V10.9869L49.9963 11.0444V8.00651L57.2125 8.59109L57.0783 10.7953L54.9029 10.8719L53.6092 22.2761L51.7213 22.6498L44.3804 11.2457L43.6329 19.4873L46.9679 19.6886ZM76.0725 19.2094L76.015 21.6436L67.7638 21.9023V18.8836L69.6133 18.9603L67.4954 15.2515C67.061 15.3985 66.6361 15.5262 66.2208 15.6348C65.8119 15.7371 65.4222 15.8265 65.0517 15.9032C64.6875 15.9798 64.3489 16.0405 64.0358 16.0853C63.7228 16.13 63.4481 16.1651 63.2117 16.1907L63.0775 19.0753L66.8054 19.2094L66.7479 21.6436L58.5063 21.9023V18.8836L61.0363 18.9794L60.5667 10.8528L58.5063 10.9103V7.89151L66.8054 8.22693L66.7479 10.6515L63.4896 10.7761L63.2883 14.8969C63.9528 14.8522 64.5661 14.7436 65.1283 14.5711C65.6906 14.3922 66.2017 14.1782 66.6617 13.929C67.1281 13.6798 67.5433 13.4051 67.9075 13.1048C68.2781 12.8046 68.6007 12.5043 68.8754 12.204C69.1565 11.9037 69.3929 11.6162 69.5846 11.3415C69.7826 11.0668 69.9424 10.8304 70.0638 10.6323L67.7446 10.4407L67.8021 8.00651L76.1108 8.08318L75.9479 11.1307L73.4754 10.9294C73.2263 11.3575 72.9388 11.7536 72.6129 12.1178C72.2871 12.4755 71.9357 12.8078 71.5588 13.1144C71.1882 13.4147 70.7953 13.6894 70.38 13.9386C69.9711 14.1814 69.5526 14.4018 69.1246 14.5998L73.0058 19.0944L76.0725 19.2094ZM86.9113 16.2673L82.4742 15.9128L82.3017 18.2319H89.8725L90.2463 16.3632H91.7413L91.4058 21.3561L77.4908 21.8832V18.2319H80.3371L79.925 11.7728L77.4908 11.9357V8.32276L91.7413 8.61984V14.1494L90.2463 14.4465L89.9492 11.1307L82.8096 11.6003L82.5892 14.389L86.9113 14.1303V16.2673ZM104.957 19.2286L104.918 21.6628L96.6767 21.9215V18.9028L100.012 19.0369L99.3792 16.1907L95.4788 10.8528L92.805 10.9294V7.91068L101.114 8.24609L101.047 10.6803L98.8904 10.7569L100.913 14.8394L105.091 10.8719L101.871 11.1498L101.718 8.12151L110.017 8.04484L110.103 10.4598L107.448 10.6803L103.011 16.7753L102.369 19.1328L104.957 19.2286ZM118.287 19.6886L118.191 21.6436L110.659 22.2761V19.2286L113.131 19.3915L112.911 11.2073L110.659 11.3223L110.994 8.00651L117.444 8.30359L123.357 19.9569V10.9869L121.315 11.0444V8.00651L128.532 8.59109L128.398 10.7953L126.222 10.8719L124.928 22.2761L123.04 22.6498L115.7 11.2457L114.952 19.4873L118.287 19.6886ZM138.949 16.8615L134.473 16.5069L134.262 19.2957L137.789 19.1328V22.1611L129.547 21.9023L129.49 19.4682L132.432 19.3532L131.962 11.7728L129.528 11.9357V8.32276L143.779 8.61984V14.1494L141.891 14.2453L141.987 11.1307L134.847 11.6003L134.588 14.9928L138.949 14.7148V16.8615ZM155.298 19.2957L155.24 21.7298L146.999 21.979V18.9603L150.2 19.0944L149.586 11.3607L146.175 11.3798L146.117 14.1878H144.469L144.957 8.47609L157.56 7.96818L158.288 13.9386L156.477 14.1878L156.419 11.3223L152.615 11.3415L151.982 19.1519L155.298 19.2957Z" fill="url(#paint0_linear_1_3964)"/>
<defs>
<linearGradient id="paint0_linear_1_3964" x1="-4.60425" y1="18.3023" x2="8.67559" y2="68.6236" gradientUnits="userSpaceOnUse">
<stop stop-color="#E025CE"/>
<stop offset="1" stop-color="#4AED52"/>
</linearGradient>
</defs>
</svg>
